<?xml version="1.0" encoding="utf-8"?>
<!-- Generator: Adobe Illustrator 15.0.0, SVG Export Plug-In . SVG Version: 6.00 Build 0)  -->
<!DOCTYPE svg PUBLIC "-//W3C//DTD SVG 1.1//EN" "http://www.w3.org/Graphics/SVG/1.1/DTD/svg11.dtd">
<svg version="1.1" id="图层_1" xmlns="http://www.w3.org/2000/svg" xmlns:xlink="http://www.w3.org/1999/xlink" x="0px" y="0px"
	 width="595.275px" height="841.889px" viewBox="0 0 595.275 841.889" enable-background="new 0 0 595.275 841.889"
	 xml:space="preserve">
<g>
	<defs>
		<polyline id="SVGID_1_" points="0.606,841.889 595.882,841.889 595.882,34.02 0.606,34.02 0.606,841.889 		"/>
	</defs>
	<clipPath id="SVGID_2_">
		<use xlink:href="#SVGID_1_"  overflow="visible"/>
	</clipPath>
	<rect x="-594.666" y="34.021" clip-path="url(#SVGID_2_)" fill="#FFFFFF" width="1190.544" height="807.868"/>
	
		<linearGradient id="SVGID_3_" gradientUnits="userSpaceOnUse" x1="-105.8872" y1="126.6226" x2="-102.8316" y2="126.6226" gradientTransform="matrix(150.7507 285.2433 285.2433 -150.7507 -20388.2617 49307.1016)">
		<stop  offset="0" style="stop-color:#4FBBE2"/>
		<stop  offset="1" style="stop-color:#1687C1"/>
	</linearGradient>
	<rect x="-594.666" y="184.128" clip-path="url(#SVGID_2_)" fill="url(#SVGID_3_)" width="1190.544" height="544.718"/>
	<path clip-path="url(#SVGID_2_)" fill="#4FBBE2" d="M595.879,486.78c-137.163-5.366-247.732-5.847-447.822,102.11
		c-200.699,108.282-497.597,75.048-742.722,7.249v245.75H595.879V486.78z"/>
	
		<linearGradient id="SVGID_4_" gradientUnits="userSpaceOnUse" x1="-105.4673" y1="117.3057" x2="-102.4112" y2="117.3057" gradientTransform="matrix(239.6305 178.0361 178.0361 -239.6305 3770.7417 46792.4883)">
		<stop  offset="0" style="stop-color:#1280BA"/>
		<stop  offset="0.9946" style="stop-color:#1687C1"/>
		<stop  offset="1" style="stop-color:#1687C1"/>
	</linearGradient>
	<path clip-path="url(#SVGID_2_)" fill="url(#SVGID_4_)" d="M595.879,184.128H-594.666V540.98
		c0,48.047,261.254-81.717,490.798-114.142c473.372-66.886,699.747,57.422,699.747-16.643V184.128z"/>
	<path clip-path="url(#SVGID_2_)" fill="#FFFFFF" d="M595.879,153.382H-594.666v196.792c11.225,12.475,82.494,52.237,346.612,23.195
		c292.089-32.089,414.679-86.994,674.981-70.263c144.422,9.273,166.273,35.514,168.951,46.468V153.382z"/>
</g>
<g>
	<g>
		<path fill="#FFFFFF" d="M247.634,174.604l-3.839-18.08h2.629l1.536,8.493c0.373,2.071,0.838,4.491,1.117,6.632h0.07
			c0.256-2.188,0.652-4.538,1.071-6.702l1.559-8.423h2.583l-4.002,18.08H247.634z M264.818,174.627v-4.212h-6.771v-1.629
			l6.539-11.983h2.443v11.564h1.908v2.048h-1.908v4.212H264.818z M264.818,168.368v-5.771c0-0.768,0.07-1.932,0.117-2.769h-0.047
			c-0.442,0.907-0.861,1.769-1.28,2.56l-3.327,5.911v0.069H264.818z M275.952,172.813c0,1.047-0.838,1.885-1.885,1.885
			c-1.024,0-1.885-0.838-1.885-1.885c0-1.024,0.861-1.862,1.885-1.862C275.161,170.951,275.952,171.835,275.952,172.813z
			 M277.213,165.808c0-5.654,2.047-9.122,5.166-9.122c3.607,0,4.98,3.863,4.98,8.913c0,6.259-2.211,9.145-5.05,9.145
			C278.842,174.744,277.213,170.858,277.213,165.808z M279.68,166.111c0,3.7,0.745,6.492,2.629,6.492
			c1.792,0,2.583-2.56,2.583-6.865c0-4.211-0.675-6.911-2.56-6.911c-1.605,0-2.653,2.443-2.653,6.701V166.111z"/>
	</g>
</g>
<text transform="matrix(1 0 0 1 267.7666 235.7407)" fill="#2C6FB6" font-family="'WenQuanYi Micro Hei'" font-size="34">EayunOS 产品手册</text>
<g>
	<path fill="#00B2EB" d="M530.329,41.358c0-1.953-0.685-2.607-1.327-3.103c-3.312-2.535-11.166-2.429-16.636-1.425
		c-4.353,0.797-11.801,2.067-17.699,0.302v0.013l-0.003-0.013c0,0-1.378,0.567-1.457,3.026c-0.022,0.989,0.118,2.566,1.46,3.345
		c3.524,1.761,11.076,0.745,16.667-0.21c12.937-2.217,17.604,1.302,17.668,1.347v0.001V44.64
		C529.998,44.634,530.329,42.35,530.329,41.358"/>
	<path fill="#63B52F" d="M524.357,27.885c-4.434-2.784-16.694,2.22-25.043-0.39h-0.006c-0.096,0.051-1.101,0.758-1.316,3.093
		c-0.219,2.271,0.864,2.938,1.316,3.279c3.634,2.747,16.697-2.217,25.049,0.389c0.994,0,1.333-2.28,1.333-3.276
		C525.69,29.457,525.163,28.394,524.357,27.885"/>
	<path fill="#00AEA7" d="M524.357,46.874c-4.434-2.783-16.694,2.223-25.043-0.386v-0.002l-0.006,0.002v-0.002v0.002
		c-0.096,0.052-1.101,0.759-1.316,3.094c-0.219,2.268,0.864,2.936,1.316,3.276c3.634,2.743,16.697-2.217,25.049,0.39
		c0.994,0,1.333-2.28,1.333-3.275C525.69,48.447,525.163,47.387,524.357,46.874"/>
	<path fill="#231815" d="M569.082,30.513v-1.391l-0.208-0.188c-0.123,0-10.866,0-12.861,0l-0.196,0.188c0,0.104,0,1.079,0,1.407
		l0.202,0.204c1.221,0,12.637,0,12.811,0L569.082,30.513z M553.032,36.74c0-0.417-0.538-0.887-1.077-0.887s-9.39,0-9.39,0
		l0.951-0.92h6.64c0,0,1.316,0,1.61,0c0.301,0,0.536-0.168,0.536-0.451v-5.287c0-0.356-0.216-0.635-0.595-0.635h-11.037
		c-0.704,0-1.684,0.389-1.684,1.522c0,0.633,0,4.531,0,4.531s0.098,0.32,0.466,0.32c0.367,0,1.333,0,1.333,0l-1.776,1.964
		c0,0-0.298,0.401-1.036,0.401h-0.37l-0.093,0.085v0.962c0,0-0.025,0.265,0.298,0.265h1.563c0.452,0,0.887-0.363,0.887-0.363
		l0.777-0.749h1.541l-3.157,3.231c0,0-0.339,0.362-1.1,0.362h-0.284h-0.351l-0.081,0.074v1.125l0.193,0.146h1.063
		c1.521,0,2.268-0.766,2.353-0.864l4.063-4.075h2.396l-3.124,3.198c0,0-0.451,0.396-1.231,0.396h-0.472L542.7,41.25v1.003
		l0.289,0.185h0.968c1.521,0,2.268-0.766,2.357-0.864l4.055-4.075h0.326v3.146l-0.009-0.158l0.009,0.198l-0.567,0.317h-1.024
		l-0.196,0.166v0.839c0,0,0.073,0.342,0.346,0.342c0.271,0,1.237,0,1.237,0c1.053,0,1.655-0.337,1.967-0.622
		c0.553-0.485,0.584-1.062,0.575-1.24C553.032,40.487,553.032,37.011,553.032,36.74z M541.035,30.197c0.054,0,8.375,0,9.219,0
		l0.07,0.079v0.794h-9.355v-0.798L541.035,30.197z M540.969,33.151v-0.735h9.355v0.764l-0.146,0.111h-9.062L540.969,33.151z
		 M569.404,33.381h-14.087l-0.199,0.177v1.446c0,0,0.011,0.174,0.306,0.174c0.297,0,2.856,0,2.856,0l-2.57,4.896l-0.154,0.603v1.169
		l0.225,0.281h11.851c0.556,0,1.024-0.328,1.024-0.915c0-0.21,0-0.309,0-0.628c0-0.702-0.193-0.949-0.193-0.949l-1.516-2.412
		l-0.404-0.208h-1.613c-0.455,0-0.272,0.358-0.272,0.358l1.283,2.064c0,0,0.628,0.896-0.211,0.896h-3.367c-2.212,0-4.131,0-4.131,0
		l2.66-5.155h8.503l0.199-0.186v-1.397L569.404,33.381z"/>
	<path fill="#231815" d="M537.511,50.22c0-2.441,1.513-3.656,3.025-3.656c1.246,0,2.296,0.625,2.296,1.82
		c0,2.168-3.638,1.717-3.638,2.767c0,0.471,0.862,0.818,1.423,0.818c1.855,0,1.855-1.266,2.016-1.266l0.199,0.61
		c0,1.28-1.109,2.021-2.467,2.021C538.348,53.334,537.511,51.837,537.511,50.22z M539.04,49.217l0.202,0.223
		c0.129,0,2.189-0.403,2.189-0.914c0-0.501-0.52-0.772-0.951-0.772C539.568,47.755,539.04,48.636,539.04,49.217z"/>
	<path fill="#231815" d="M546.921,48.98c0.328-0.055,0.589-0.104,0.589-0.435c0-0.519-0.598-0.79-1.095-0.79
		c-1.156,0-0.981,0.87-1.229,0.87c-0.362,0-0.758-0.396-0.758-0.831c0-0.747,0.932-1.23,1.976-1.23c0.361,0,1.911-0.011,2.483,1.406
		c0.238,0.585,0.264,3.571,0.264,3.927c0,0.442,0.09,0.708,0.09,1.05c0,0.212-1.063,0.233-2.068,0.233
		c-2.722,0-2.916-1.251-2.916-1.856C544.257,50.051,545.66,49.171,546.921,48.98z M547.622,50.744c0-0.351,0.07-0.776-0.472-0.776
		c-0.665,0-1.369,0.506-1.369,1.121c0,0.564,0.55,0.896,1.156,0.896c0.665,0,0.685-0.298,0.685-0.793V50.744z"/>
	<path fill="#231815" d="M550.737,52.057c0-0.118,0.017-0.411,0.319-0.411c1.297,0,1.645-0.375,1.645-0.508
		c0-0.425-1.964-1.145-1.964-3.949c0-0.453-0.017-0.473,0.421-0.473h0.932l0.393,0.181c0,0.139-0.096,0.455-0.096,0.755
		c0,1.183,1.104,2.297,1.331,2.297c0.448,0,0.757-1.218,0.757-1.993c0-0.502-0.129-0.929-0.129-1.092l0.41-0.148h1.008
		c0.204,0.032,0.182,0.351,0.182,0.786c0.099,2.961-2.455,5.832-4.941,5.832c-0.262,0-0.267-0.154-0.267-0.387V52.057z"/>
	<path fill="#231815" d="M562.192,46.717c0.472,0,0.485,2.119,0.485,3.084c0,3.702-0.292,3.533-1.108,3.533
		c-1.185,0-0.28-0.567-0.92-0.567l-0.573,0.328c-0.204,0.115-0.46,0.239-0.839,0.239c-0.935,0-1.808-0.526-1.808-3.418
		c0-0.173,0.085-3.199,0.559-3.199h1.036l0.457,0.148c0,0.155-0.521,1.161-0.521,3.07c0,0.573-0.015,2.105,0.959,2.105
		c0.374,0,1.232-0.101,1.232-2.275c0-1.211-0.396-2.772-0.396-2.934l0.382-0.115H562.192z"/>
	<path fill="#231815" d="M567.89,53.18l-0.398-0.159c0-0.103,0.575-1.446,0.575-3.501c0-0.711-0.064-1.611-0.831-1.611
		c-0.435,0-1.316,0.251-1.316,2.252c0,1.209,0.329,2.766,0.329,2.885l-0.307,0.133h-0.957c-0.421,0-0.589,0.171-0.589-2.492
		c0-4.577,0.396-4.296,1.266-4.296c0.398,0,0.803-0.049,0.803,0.183l-0.102,0.368l0.169,0.189c0.19,0,0.713-0.414,1.434-0.414
		c0.317,0,1.628,0.039,1.628,2.698c0,3.965-0.351,3.765-0.735,3.765H567.89z"/>
</g>
<text transform="matrix(1 0 0 1 233.4082 265.8398)" fill="#63B52F" font-family="'WenQuanYi Micro Hei'" font-size="24">EayunOS Product Document</text>
</svg>
